<?xml version="1.0" encoding="utf-8"?>
<svg width="515px" height="547px" viewBox="0 0 515 547" version="1.1" xmlns:xlink="http://www.w3.org/1999/xlink" xmlns="http://www.w3.org/2000/svg">
  <path d="M2 0L478 0Q478.103 0 478.203 0.00932124Q478.304 0.0186425 478.403 0.037209Q478.501 0.0557754 478.597 0.0834357Q478.692 0.111096 478.783 0.147624Q478.875 0.184153 478.961 0.229252Q479.048 0.27435 479.129 0.327651Q479.21 0.380953 479.285 0.442021Q479.36 0.50309 479.429 0.571429Q479.497 0.639767 479.558 0.714818Q479.619 0.789868 479.672 0.871019Q479.726 0.95217 479.771 1.03876Q479.816 1.12535 479.852 1.21667Q479.889 1.30799 479.917 1.4033Q479.944 1.49861 479.963 1.59713Q479.981 1.69564 479.991 1.79657Q480 1.89749 480 2L480 56Q480 56.1025 479.991 56.2034Q479.981 56.3044 479.963 56.4029Q479.944 56.5014 479.917 56.5967Q479.889 56.692 479.852 56.7833Q479.816 56.8747 479.771 56.9613Q479.726 57.0478 479.672 57.129Q479.619 57.2101 479.558 57.2852Q479.497 57.3602 479.429 57.4286Q479.36 57.4969 479.285 57.558Q479.21 57.619 479.129 57.6723Q479.048 57.7257 478.961 57.7708Q478.875 57.8158 478.783 57.8524Q478.692 57.8889 478.597 57.9166Q478.501 57.9442 478.403 57.9628Q478.304 57.9814 478.203 57.9907Q478.103 58 478 58L2 58Q1.89749 58 1.79657 57.9907Q1.69564 57.9814 1.59713 57.9628Q1.49861 57.9442 1.4033 57.9166Q1.30799 57.8889 1.21667 57.8524Q1.12535 57.8158 1.03876 57.7707Q0.95217 57.7256 0.871019 57.6723Q0.789868 57.619 0.714818 57.558Q0.639767 57.4969 0.571429 57.4286Q0.50309 57.3602 0.442021 57.2852Q0.380953 57.2101 0.327651 57.129Q0.27435 57.0478 0.229252 56.9613Q0.184153 56.8747 0.147624 56.7833Q0.111096 56.692 0.0834357 56.5967Q0.0557754 56.5014 0.037209 56.4029Q0.0186425 56.3044 0.00932124 56.2034Q0 56.1025 0 56L0 2Q0 1.89749 0.00932124 1.79657Q0.0186425 1.69564 0.037209 1.59713Q0.0557754 1.49861 0.0834357 1.4033Q0.111096 1.30799 0.147624 1.21667Q0.184153 1.12535 0.229252 1.03876Q0.27435 0.95217 0.327651 0.871019Q0.380953 0.789868 0.442021 0.714818Q0.50309 0.639767 0.571429 0.571429Q0.639767 0.50309 0.714818 0.442021Q0.789868 0.380953 0.871019 0.327651Q0.95217 0.27435 1.03876 0.229252Q1.12535 0.184153 1.21667 0.147624Q1.30799 0.111096 1.4033 0.0834357Q1.49861 0.0557754 1.59713 0.037209Q1.69564 0.0186425 1.79657 0.00932124Q1.89749 0 2 0Z" transform="translate(17.5 471)" id="Stand" fill="none" stroke="#000000" stroke-width="35" />
  <g id="Bars" transform="translate(49.5 54.99998)">
    <path d="M0 416L0 208C0 93.288 93.288 0 208 0C322.712 0 416 93.288 416 208L416 416L0 416L0 416Z" id="Outer-Left-Right-vertical-bars" fill="none" stroke="#000000" stroke-width="35" />
    <path d="M0 416L0 208C0 93.288 50.232 0 112 0C173.768 0 224 93.288 224 208L224 416L0 416L0 416Z" transform="translate(96 1.525879E-05)" id="Inner-Left-Right-vertical-bars" fill="none" stroke="#000000" stroke-width="30" />
    <path d="M1 164L0 0" transform="translate(207.5 1.525879E-05)" id="Middle-vertical-bar-top" fill="none" stroke="#000000" stroke-width="30" />
    <path d="M0.5 129L0.5 0" transform="translate(207.5 287)" id="Middle-vertical-bar-bottom" fill="none" stroke="#000000" stroke-width="30" />
    <path d="M0 1L416 1" transform="translate(0 320)" id="Third-horizontal-bar" fill="none" stroke="#000000" stroke-width="30" />
    <path d="M0 1L164 1" transform="translate(0 224)" id="Second-horizontal-bar-left" fill="none" stroke="#000000" stroke-width="30" />
    <path d="M0 1L164 1" transform="translate(252 223)" id="Second-horizontal-bar-right" fill="none" stroke="#000000" stroke-width="30" />
    <path d="M0 1L383 1" transform="translate(17 128)" id="First-horizontal-bar" fill="none" stroke="#000000" stroke-width="30" />
  </g>
  <path d="M75 0C33.5786 0 0 33.1309 0 74C0 114.869 33.5786 148 75 148C116.421 148 150 114.869 150 74C150 33.1309 116.421 0 75 0ZM87.5 112.447L87.5 83.8146C94.95 79.4513 100 71.4288 100 62.1489C100 48.2667 88.8 37 75 37C61.2 37 50 48.2667 50 62.1489C50 71.4414 55.05 79.4513 62.5 83.8146L62.5 112.447L87.5 112.447Z" transform="translate(182.5 205)" id="Lock" fill="#000000" fill-rule="evenodd" stroke="none" />
  <path d="M0 27.5C0 12.3122 12.3122 0 27.5 0C42.6878 0 55 12.3122 55 27.5C55 42.6878 42.6878 55 27.5 55C12.3122 55 0 42.6878 0 27.5Z" transform="translate(230 0)" id="Circle-on-top" fill="#000000" stroke="none" />
</svg>